<?xml version="1.0" standalone="no"?><!DOCTYPE svg PUBLIC "-//W3C//DTD SVG 1.1//EN" "http://www.w3.org/Graphics/SVG/1.1/DTD/svg11.dtd"><svg t="1722499881048" class="icon" viewBox="0 0 1024 1024" version="1.1" xmlns="http://www.w3.org/2000/svg" p-id="2843" xmlns:xlink="http://www.w3.org/1999/xlink" width="200" height="200"><path d="M279.272727 186.181818a93.090909 93.090909 0 1 0 0-186.181818 93.090909 93.090909 0 0 0 0 186.181818z m465.454546 0a93.090909 93.090909 0 1 0 0-186.181818 93.090909 93.090909 0 0 0 0 186.181818zM279.272727 605.090909a93.090909 93.090909 0 1 0 0-186.181818 93.090909 93.090909 0 0 0 0 186.181818z m465.454546 0a93.090909 93.090909 0 1 0 0-186.181818 93.090909 93.090909 0 0 0 0 186.181818zM279.272727 1024a93.090909 93.090909 0 1 0 0-186.181818 93.090909 93.090909 0 0 0 0 186.181818z m465.454546 0a93.090909 93.090909 0 1 0 0-186.181818 93.090909 93.090909 0 0 0 0 186.181818z" fill="#000000" p-id="2844"></path></svg>