<?xml version="1.0" standalone="no"?><!DOCTYPE svg PUBLIC "-//W3C//DTD SVG 1.1//EN" "http://www.w3.org/Graphics/SVG/1.1/DTD/svg11.dtd"><svg t="1722498679050" class="icon" viewBox="0 0 1024 1024" version="1.1" xmlns="http://www.w3.org/2000/svg" p-id="22544" xmlns:xlink="http://www.w3.org/1999/xlink" width="200" height="200"><path d="M733.867 450.133l-2.134-4.266H652.8L490.667 896h89.6l42.666-119.467h140.8L806.4 896H896L733.867 450.133zM729.6 684.8h-74.667L691.2 582.4l38.4 102.4z m-232.533 10.667l32-85.334L524.8 608c-27.733-19.2-55.467-40.533-78.933-64 57.6-72.533 100.266-153.6 128-245.333H646.4v-91.734H426.667V128h-83.2v78.933H128v91.734h356.267C460.8 364.8 428.8 424.533 386.133 477.867c-25.6-34.134-49.066-70.4-68.266-108.8l-2.134-2.134H224l4.267 8.534C253.867 437.333 288 492.8 328.533 544c-55.466 53.333-117.333 91.733-185.6 115.2l-6.4 2.133 21.334 87.467 6.4-2.133C247.467 718.933 322.133 672 386.133 608c32 32 68.267 59.733 106.667 83.2l4.267 4.267z" p-id="22545" fill="#2c2c2c"></path></svg>