<?xml version="1.0" standalone="no"?><!DOCTYPE svg PUBLIC "-//W3C//DTD SVG 1.1//EN" "http://www.w3.org/Graphics/SVG/1.1/DTD/svg11.dtd"><svg t="1722499135905" class="icon" viewBox="0 0 1024 1024" version="1.1" xmlns="http://www.w3.org/2000/svg" p-id="24625" xmlns:xlink="http://www.w3.org/1999/xlink" width="200" height="200"><path d="M384 149.333333a128 128 0 0 1 128 128v469.333334a128 128 0 0 1-128 128H256a128 128 0 0 1-128-128v-469.333334a128 128 0 0 1 128-128z m384 384a128 128 0 0 1 128 128v85.333334a128 128 0 0 1-128 128h-85.333333a128 128 0 0 1-128-128v-85.333334a128 128 0 0 1 128-128z m-384-298.666666H256a42.666667 42.666667 0 0 0-42.666667 42.666666v469.333334a42.666667 42.666667 0 0 0 42.666667 42.666666h128a42.666667 42.666667 0 0 0 42.666667-42.666666v-469.333334a42.666667 42.666667 0 0 0-42.666667-42.666666z m384 384h-85.333333a42.666667 42.666667 0 0 0-42.666667 42.666666v85.333334a42.666667 42.666667 0 0 0 42.666667 42.666666h85.333333a42.666667 42.666667 0 0 0 42.666667-42.666666v-85.333334a42.666667 42.666667 0 0 0-42.666667-42.666666z m0-469.333334a128 128 0 0 1 128 128v85.333334a128 128 0 0 1-128 128h-85.333333a128 128 0 0 1-128-128v-85.333334a128 128 0 0 1 128-128z m0 85.333334h-85.333333a42.666667 42.666667 0 0 0-42.666667 42.666666v85.333334a42.666667 42.666667 0 0 0 42.666667 42.666666h85.333333a42.666667 42.666667 0 0 0 42.666667-42.666666v-85.333334a42.666667 42.666667 0 0 0-42.666667-42.666666z" fill="#000000" p-id="24626"></path></svg>