<?xml version="1.0" standalone="no"?><!DOCTYPE svg PUBLIC "-//W3C//DTD SVG 1.1//EN" "http://www.w3.org/Graphics/SVG/1.1/DTD/svg11.dtd"><svg t="1722500577322" class="icon" viewBox="0 0 1024 1024" version="1.1" xmlns="http://www.w3.org/2000/svg" p-id="44899" xmlns:xlink="http://www.w3.org/1999/xlink" width="200" height="200"><path d="M938.666667 170.666667a42.666667 42.666667 0 0 0-42.666667-42.666667h-768a42.666667 42.666667 0 0 0 0 85.333333h768A42.666667 42.666667 0 0 0 938.666667 170.666667zM891.221333 469.333333c26.197333 0 47.445333 19.114667 47.445334 42.666667s-21.248 42.666667-47.445334 42.666667H559.445333C533.248 554.666667 512 535.552 512 512s21.248-42.666667 47.445333-42.666667h331.776zM938.666667 853.333333c0-23.552-21.248-42.666667-47.445334-42.666666H559.445333C533.248 810.666667 512 829.781333 512 853.333333s21.248 42.666667 47.445333 42.666667h331.776c26.197333 0 47.445333-19.114667 47.445334-42.666667zM366.506667 719.530667a47.616 47.616 0 0 0 0-73.728L155.306667 478.634667c-28.842667-22.784-69.973333-1.109333-69.973334 36.864V849.92c0 37.973333 41.130667 59.733333 69.973334 36.864l211.2-167.168z" p-id="44900"></path></svg>