<?xml version="1.0" standalone="no"?><!DOCTYPE svg PUBLIC "-//W3C//DTD SVG 1.1//EN" "http://www.w3.org/Graphics/SVG/1.1/DTD/svg11.dtd"><svg t="1724654276402" class="icon" viewBox="0 0 1024 1024" version="1.1" xmlns="http://www.w3.org/2000/svg" p-id="13753" xmlns:xlink="http://www.w3.org/1999/xlink" width="200" height="200"><path d="M512 801.07c-58.96 0-119.95-14.62-181.28-43.45-48.19-22.66-96.73-54.12-144.26-93.52-80.39-66.64-129.95-132.58-132.02-135.35a28.005 28.005 0 0 1 0-33.49c2.07-2.77 51.62-68.71 132.01-135.35 11.91-9.87 29.56-8.22 39.43 3.69 9.87 11.91 8.22 29.56-3.69 39.43-51.67 42.83-90.26 86.04-109.41 108.98C132.05 535.08 171 578.7 223.17 621.8c43.8 36.18 88.21 64.93 132.01 85.45 53.59 25.1 106.36 37.83 156.82 37.83 26.14 0 53.14-3.44 80.23-10.21 15-3.75 30.21 5.37 33.96 20.37s-5.37 30.21-20.37 33.96c-31.53 7.87-63.1 11.87-93.82 11.87z m307.69-130.53c-8.05 0-16.04-3.45-21.57-10.13-9.87-11.91-8.22-29.56 3.69-39.43 51.85-42.98 90.33-86.08 109.42-108.96-19.26-23.07-58.23-66.69-110.4-109.8-43.8-36.18-88.21-64.93-132.01-85.45-53.59-25.1-106.36-37.83-156.82-37.83-25.94 0-52.71 3.38-79.58 10.05-15.01 3.73-30.2-5.42-33.92-20.43-3.73-15.01 5.42-30.2 20.43-33.92 31.28-7.77 62.6-11.7 93.08-11.7 58.96 0 119.95 14.62 181.28 43.45 48.19 22.66 96.73 54.12 144.26 93.52 80.39 66.63 129.94 132.57 132.01 135.35a28.005 28.005 0 0 1 0 33.49c-2.07 2.77-51.63 68.71-132.02 135.35a27.993 27.993 0 0 1-17.85 6.44z" p-id="13754" fill="#2c2c2c"></path><path d="M512 648.78c-75.42 0-136.78-61.36-136.78-136.78 0-34.32 12.77-67.15 35.96-92.43 10.45-11.4 28.16-12.16 39.56-1.71 11.4 10.45 12.16 28.16 1.71 39.56-13.69 14.93-21.23 34.31-21.23 54.58 0 44.54 36.24 80.78 80.78 80.78 21.27 0 41.35-8.2 56.55-23.09 11.04-10.83 28.77-10.65 39.6 0.4 10.82 11.04 10.65 28.77-0.4 39.6-25.73 25.2-59.73 39.09-95.75 39.09z" p-id="13755" fill="#2c2c2c"></path><path d="M846.65 874.65c-7.17 0-14.33-2.73-19.8-8.2l-669.29-669.3c-10.94-10.93-10.94-28.66 0-39.6 10.93-10.93 28.66-10.93 39.6 0l669.29 669.29c10.93 10.93 10.93 28.66 0 39.6a27.927 27.927 0 0 1-19.8 8.21z" p-id="13756" fill="#2c2c2c"></path></svg>