<?xml version="1.0" standalone="no"?><!DOCTYPE svg PUBLIC "-//W3C//DTD SVG 1.1//EN" "http://www.w3.org/Graphics/SVG/1.1/DTD/svg11.dtd"><svg t="1721729341633" class="icon" viewBox="0 0 1024 1024" version="1.1" xmlns="http://www.w3.org/2000/svg" p-id="12120" xmlns:xlink="http://www.w3.org/1999/xlink" width="200" height="200"><path d="M921.6 220.672a327.68 327.68 0 0 0-114.176 105.728 939.776 939.776 0 0 0-68.608 128q-28.672 65.536-57.856 125.952a285.44 285.44 0 0 1-80.384 102.4 203.264 203.264 0 0 1-84.48 39.424 336.64 336.64 0 0 1-90.624 6.144 405.504 405.504 0 0 1-87.04-15.36q-41.984-12.288-73.728-25.6L230.4 734.976a676.608 676.608 0 0 0-64.512 120.832q-10.496 25.6-41.472 7.424t-23.04-38.4a653.312 653.312 0 0 1 150.272-227.84 1335.552 1335.552 0 0 1 197.632-163.072 1207.552 1207.552 0 0 1 172.544-98.304l73.728-32.768-54.016 2.56a599.296 599.296 0 0 0-134.912 25.6 806.144 806.144 0 0 0-175.616 79.104A618.24 618.24 0 0 0 153.6 572.672v-66.816a322.816 322.816 0 0 1 13.312-90.624 371.712 371.712 0 0 1 46.08-99.072A301.824 301.824 0 0 1 307.2 226.048a441.6 441.6 0 0 1 198.144-66.304A1037.056 1037.056 0 0 1 716.8 158.464a762.368 762.368 0 0 1 159.744 30.976q61.952 20.736 45.056 31.232z" fill="#4DB6AC" p-id="12121"></path></svg>
